<svg width="1868" height="500" viewBox="0 0 1868 500" fill="none" xmlns="http://www.w3.org/2000/svg">
<g clip-path="url(#clip0_6_113)">
<path d="M1244.75 405.126C1266.06 405.126 1283.33 387.851 1283.33 366.542C1283.33 345.233 1266.06 327.959 1244.75 327.959C1223.44 327.959 1206.17 345.233 1206.17 366.542C1206.17 387.851 1223.44 405.126 1244.75 405.126Z" stroke="#F5793B" stroke-width="23" stroke-linecap="round" stroke-linejoin="round"/>
<path d="M1456.96 405.126C1478.27 405.126 1495.54 387.851 1495.54 366.542C1495.54 345.233 1478.27 327.959 1456.96 327.959C1435.65 327.959 1418.38 345.233 1418.38 366.542C1418.38 387.851 1435.65 405.126 1456.96 405.126Z" stroke="#F5793B" stroke-width="23" stroke-linecap="round" stroke-linejoin="round"/>
<path d="M1456.96 327.958H1244.75V57.875H1206.17" stroke="#F5793B" stroke-width="23" stroke-linecap="round" stroke-linejoin="round"/>
<path d="M1244.75 96.459L1514.83 115.751L1495.54 250.792H1244.75" stroke="#F5793B" stroke-width="23" stroke-linecap="round" stroke-linejoin="round"/>
</g>
<path d="M266.477 203H239.773C237.784 193.057 234.186 183.871 228.977 175.443C223.864 166.92 217.424 159.487 209.659 153.142C201.894 146.797 193.087 141.873 183.239 138.369C173.39 134.866 162.737 133.114 151.278 133.114C132.907 133.114 116.146 137.896 100.994 147.46C85.9375 157.025 73.8636 171.087 64.7727 189.648C55.7765 208.114 51.2784 230.746 51.2784 257.545C51.2784 284.534 55.7765 307.261 64.7727 325.727C73.8636 344.193 85.9375 358.208 100.994 367.773C116.146 377.242 132.907 381.977 151.278 381.977C162.737 381.977 173.39 380.225 183.239 376.722C193.087 373.218 201.894 368.341 209.659 362.091C217.424 355.746 223.864 348.312 228.977 339.79C234.186 331.267 237.784 322.034 239.773 312.091H266.477C264.11 325.443 259.659 337.896 253.125 349.449C246.686 360.907 238.447 370.945 228.409 379.562C218.466 388.18 207.008 394.903 194.034 399.733C181.061 404.562 166.809 406.977 151.278 406.977C126.847 406.977 105.161 400.869 86.2216 388.653C67.2822 376.343 52.4148 359.013 41.6193 336.665C30.9186 314.316 25.5682 287.943 25.5682 257.545C25.5682 227.148 30.9186 200.775 41.6193 178.426C52.4148 156.078 67.2822 138.795 86.2216 126.58C105.161 114.269 126.847 108.114 151.278 108.114C166.809 108.114 181.061 110.528 194.034 115.358C207.008 120.093 218.466 126.816 228.409 135.528C238.447 144.146 246.686 154.184 253.125 165.642C259.659 177.1 264.11 189.553 266.477 203ZM522.763 112.091H549.325V304.705C549.325 324.496 544.685 342.205 535.405 357.83C526.125 373.36 513.198 385.623 496.626 394.619C480.149 403.521 460.973 407.972 439.098 407.972C417.318 407.972 398.142 403.473 381.57 394.477C364.998 385.481 352.071 373.218 342.791 357.688C333.511 342.157 328.871 324.496 328.871 304.705V112.091H355.433V302.858C355.433 318.294 358.89 332.072 365.803 344.193C372.715 356.22 382.422 365.689 394.922 372.602C407.517 379.515 422.242 382.972 439.098 382.972C455.954 382.972 470.679 379.515 483.274 372.602C495.869 365.689 505.575 356.22 512.393 344.193C519.306 332.072 522.763 318.294 522.763 302.858V112.091ZM854.368 203H827.663C825.675 193.057 822.076 183.871 816.868 175.443C811.754 166.92 805.315 159.487 797.55 153.142C789.785 146.797 780.978 141.873 771.129 138.369C761.281 134.866 750.627 133.114 739.169 133.114C720.798 133.114 704.036 137.896 688.885 147.46C673.828 157.025 661.754 171.087 652.663 189.648C643.667 208.114 639.169 230.746 639.169 257.545C639.169 284.534 643.667 307.261 652.663 325.727C661.754 344.193 673.828 358.208 688.885 367.773C704.036 377.242 720.798 381.977 739.169 381.977C750.627 381.977 761.281 380.225 771.129 376.722C780.978 373.218 789.785 368.341 797.55 362.091C805.315 355.746 811.754 348.312 816.868 339.79C822.076 331.267 825.675 322.034 827.663 312.091H854.368C852 325.443 847.55 337.896 841.016 349.449C834.576 360.907 826.338 370.945 816.3 379.562C806.357 388.18 794.898 394.903 781.925 399.733C768.951 404.562 754.699 406.977 739.169 406.977C714.737 406.977 693.052 400.869 674.112 388.653C655.173 376.343 640.305 359.013 629.51 336.665C618.809 314.316 613.459 287.943 613.459 257.545C613.459 227.148 618.809 200.775 629.51 178.426C640.305 156.078 655.173 138.795 674.112 126.58C693.052 114.269 714.737 108.114 739.169 108.114C754.699 108.114 768.951 110.528 781.925 115.358C794.898 120.093 806.357 126.816 816.3 135.528C826.338 144.146 834.576 154.184 841.016 165.642C847.55 177.1 852 189.553 854.368 203ZM916.761 403V112.091H943.324V245.472H1108.38V112.091H1134.94V403H1108.38V269.335H943.324V403H916.761Z" fill="#F5793B"/>
<path d="M1559.46 203V177.432C1559.46 169.667 1560.83 161.428 1563.58 152.716C1566.42 143.909 1570.49 135.434 1575.8 127.29C1581.19 119.051 1587.68 111.902 1595.26 105.841L1609.18 117.915C1601.98 126.248 1595.92 135.528 1590.99 145.756C1586.16 155.888 1583.75 166.305 1583.75 177.006V203H1559.46ZM1812.76 184.818C1811.15 168.625 1804 155.746 1791.31 146.182C1778.62 136.617 1762.67 131.835 1743.44 131.835C1729.9 131.835 1717.97 134.155 1707.65 138.795C1697.42 143.436 1689.37 149.875 1683.5 158.114C1677.72 166.258 1674.84 175.538 1674.84 185.955C1674.84 193.625 1676.49 200.348 1679.81 206.125C1683.12 211.902 1687.57 216.873 1693.16 221.04C1698.84 225.112 1705.09 228.616 1711.91 231.551C1718.82 234.487 1725.78 236.949 1732.79 238.938L1763.47 247.744C1772.75 250.301 1782.03 253.568 1791.31 257.545C1800.59 261.523 1809.07 266.542 1816.74 272.602C1824.51 278.568 1830.71 285.907 1835.35 294.619C1840.08 303.237 1842.45 313.606 1842.45 325.727C1842.45 341.258 1838.43 355.225 1830.38 367.631C1822.33 380.036 1810.77 389.884 1795.72 397.176C1780.66 404.373 1762.62 407.972 1741.6 407.972C1721.81 407.972 1704.62 404.705 1690.04 398.17C1675.45 391.542 1663.99 382.403 1655.66 370.756C1647.33 359.108 1642.64 345.614 1641.6 330.273H1668.87C1669.82 341.731 1673.61 351.437 1680.23 359.392C1686.86 367.347 1695.48 373.407 1706.09 377.574C1716.69 381.646 1728.53 383.682 1741.6 383.682C1756.09 383.682 1768.97 381.267 1780.23 376.438C1791.6 371.513 1800.5 364.695 1806.94 355.983C1813.47 347.176 1816.74 336.949 1816.74 325.301C1816.74 315.453 1814.18 307.214 1809.07 300.585C1803.96 293.862 1796.81 288.227 1787.62 283.682C1778.53 279.136 1767.97 275.112 1755.94 271.608L1721.14 261.381C1698.32 254.562 1680.61 245.14 1668.02 233.114C1655.42 221.087 1649.13 205.746 1649.13 187.091C1649.13 171.466 1653.29 157.735 1661.63 145.898C1670.05 133.966 1681.42 124.686 1695.72 118.057C1710.11 111.333 1726.26 107.972 1744.15 107.972C1762.24 107.972 1778.25 111.286 1792.17 117.915C1806.09 124.544 1817.12 133.682 1825.26 145.33C1833.5 156.883 1837.9 170.045 1838.47 184.818H1812.76Z" fill="#F5793B"/>
<defs>
<clipPath id="clip0_6_113">
<rect width="463" height="463" fill="white" transform="translate(1129)"/>
</clipPath>
</defs>
</svg>
